<svg xmlns="http://www.w3.org/2000/svg" width="100" height="100" viewBox="0 0 100 100">
  <g id="Group_1" data-name="Group 1" transform="translate(-692 -299)">
    <circle id="Ellipse_1" data-name="Ellipse 1" cx="50" cy="50" r="50" transform="translate(692 299)" fill="#fa3768"/>
    <path id="Path_1" data-name="Path 1" d="M36.613-5.123a5,5,0,0,0-.4-1.974,5.151,5.151,0,0,0-1.1-1.645,5.151,5.151,0,0,0-1.645-1.1,5,5,0,0,0-1.974-.4H19.223a7.106,7.106,0,0,1-5.076-2.068,7.106,7.106,0,0,1-2.068-5.076,6.846,6.846,0,0,1,2.068-5.029,6.923,6.923,0,0,1,5.076-2.115H31.49a5,5,0,0,0,1.974-.4,5.151,5.151,0,0,0,1.645-1.1,5.226,5.226,0,0,0,1.1-1.622,4.944,4.944,0,0,0,.4-2,5,5,0,0,0-.4-1.974,5.151,5.151,0,0,0-1.1-1.645,5.151,5.151,0,0,0-1.645-1.1,5,5,0,0,0-1.974-.4H19.223A16.736,16.736,0,0,0,6.956-29.657,16.713,16.713,0,0,0,1.88-17.39,16.768,16.768,0,0,0,6.956-5.076,16.713,16.713,0,0,0,19.223,0H31.49a5,5,0,0,0,1.974-.4,5.151,5.151,0,0,0,1.645-1.1,5.226,5.226,0,0,0,1.1-1.621A4.944,4.944,0,0,0,36.613-5.123Zm38.493,0a5,5,0,0,0-.4-1.974,5.151,5.151,0,0,0-1.1-1.645,5.151,5.151,0,0,0-1.645-1.1,5,5,0,0,0-1.974-.4H45.449a4.944,4.944,0,0,0-2,.4,4.95,4.95,0,0,0-1.6,1.1A5.357,5.357,0,0,0,40.772-7.1a5,5,0,0,0-.4,1.974,4.934,4.934,0,0,0,1.5,3.619A4.88,4.88,0,0,0,45.449,0H69.983a5,5,0,0,0,1.974-.4A5.151,5.151,0,0,0,73.6-1.5a5.226,5.226,0,0,0,1.1-1.621A4.944,4.944,0,0,0,75.106-5.123Zm-17.39-17.39a4.944,4.944,0,0,0-2,.4,4.95,4.95,0,0,0-1.6,1.1,5.357,5.357,0,0,0-1.081,1.645,5,5,0,0,0-.4,1.974,4.934,4.934,0,0,0,1.5,3.619,4.88,4.88,0,0,0,3.572,1.5,5,5,0,0,0,1.974-.4,5.151,5.151,0,0,0,1.645-1.1,5.226,5.226,0,0,0,1.1-1.621,4.944,4.944,0,0,0,.4-2,5,5,0,0,0-.4-1.974,5.151,5.151,0,0,0-1.1-1.645,5.151,5.151,0,0,0-1.645-1.1A5,5,0,0,0,57.716-22.513ZM40.373-29.657a4.934,4.934,0,0,0,1.5,3.619,4.88,4.88,0,0,0,3.572,1.5H69.983a5,5,0,0,0,1.974-.4,5.151,5.151,0,0,0,1.645-1.1,5.226,5.226,0,0,0,1.1-1.622,4.944,4.944,0,0,0,.4-2,5,5,0,0,0-.4-1.974,5.151,5.151,0,0,0-1.1-1.645,5.151,5.151,0,0,0-1.645-1.1,5,5,0,0,0-1.974-.4H45.449a4.944,4.944,0,0,0-2,.4,4.95,4.95,0,0,0-1.6,1.1,5.357,5.357,0,0,0-1.081,1.645A5,5,0,0,0,40.373-29.657Z" transform="translate(704 367)" fill="#fff"/>
  </g>
</svg>
